<svg xmlns="http://www.w3.org/2000/svg" xmlns:xlink="http://www.w3.org/1999/xlink" version="1.1" id="Layer_1" x="0px" y="0px" enable-background="new 0 0 1520 920" xml:space="preserve" viewBox="387.48 232 345.52 400.55">
<path fill="none" opacity="1.000000" stroke="#000000" stroke-linecap="round" stroke-linejoin="round" stroke-width="16.000000" d=" M728.750000,382.000000   C728.666626,383.666656 728.510681,385.333344 728.510437,387.000000   C728.498474,465.666656 728.501831,544.333313 728.490112,623.000000   C728.489807,625.007263 728.799072,627.052673 727.973328,628.967896   C726.219666,629.749939 724.344055,629.493530 722.500000,629.493835   C680.166687,629.501892 637.833313,629.500000 595.500000,629.500000   C578.666687,629.500000 561.833313,629.500000 545.000000,629.500000   C521.833313,629.500000 498.666504,629.462402 475.500183,629.551086   C472.832092,629.561279 470.166656,628.597961 467.500000,629.500000  "/>
<path fill="none" opacity="1.000000" stroke="#000000" stroke-linecap="round" stroke-linejoin="round" stroke-width="16.000000" d=" M662.500000,499.500000   C662.500000,473.000000 662.445618,446.499725 662.577454,420.000397   C662.591919,417.097687 661.612061,415.209900 659.511658,413.485809   C640.658386,398.010101 621.814453,382.522858 603.005127,366.993744   C582.649231,350.187836 562.334351,333.332062 541.999634,316.500427   C528.864746,305.628326 515.726318,294.760529 502.214539,283.580597   C497.209930,289.230927 491.466003,293.966797 486.040985,299.043793   C481.539673,303.256378 477.166016,307.582520 472.000122,311.000183   C471.498962,311.331726 470.736115,311.554443 470.539490,312.016754   C467.446686,319.289612 459.928955,322.074127 454.899536,327.405212   C449.167114,333.481537 442.698792,338.868835 436.490906,344.489960   C430.365875,350.035980 423.989594,355.316193 418.043030,361.044678   C409.881714,368.906708 401.661163,376.699829 392.942566,383.930756   C390.636475,385.843323 390.479706,387.953278 390.480499,390.500000   C390.504395,468.833344 390.500000,547.166687 390.500000,625.500000  "/>
<path fill="none" opacity="1.000000" stroke="#000000" stroke-linecap="round" stroke-linejoin="round" stroke-width="16.000000" d=" M468.500000,317.500000   C470.078827,319.475067 469.476624,321.809967 469.477203,324.000000   C469.503448,423.833344 469.496063,523.666687 469.533691,623.500000   C469.534302,625.156372 468.941315,626.922546 470.000000,628.500000  "/>
<path fill="none" opacity="1.000000" stroke="#000000" stroke-linecap="round" stroke-linejoin="round" stroke-width="16.000000" d=" M589.500000,628.000000   C589.500000,593.665833 589.500000,559.331726 589.500000,524.750000   C572.333313,524.750000 555.666687,524.750000 538.500000,524.750000   C538.500000,559.498413 538.500000,593.999207 538.500000,628.500000  "/>
<path fill="none" opacity="1.000000" stroke="#000000" stroke-linecap="round" stroke-linejoin="round" stroke-width="16.000000" d=" M555.500000,237.000000   C565.990784,244.565735 575.517517,253.313156 585.476501,261.528473   C602.727783,275.759277 619.817505,290.185669 637.004517,304.494568   C653.650391,318.352936 670.373901,332.118103 686.987549,346.014893   C701.047974,357.775970 714.996216,369.671143 729.026001,381.469086   C729.318909,381.715363 730.000000,381.500000 730.500000,381.500000  "/>
<path fill="none" opacity="1.000000" stroke="#000000" stroke-linecap="round" stroke-linejoin="round" stroke-width="16.000000" d=" M555.500000,234.500000   C555.622375,236.026031 554.707397,236.597061 553.588135,237.598495   C538.290588,251.285553 523.147827,265.146149 508.028381,279.030884   C506.473236,280.459045 504.515350,281.678955 504.000000,284.000000  "/>
<path fill="none" opacity="1.000000" stroke="#000000" stroke-linecap="round" stroke-linejoin="round" stroke-width="16.000000" d=" M470.500000,259.500000   C469.103455,261.140015 469.513184,263.120117 469.510437,265.000031   C469.490906,278.333344 469.515381,291.666687 469.485321,304.999969   C469.480103,307.307373 469.405365,309.585938 471.000000,311.500000  "/>
<path fill="none" opacity="1.000000" stroke="#000000" stroke-linecap="round" stroke-linejoin="round" stroke-width="16.000000" d=" M469.500000,253.500000   C469.590515,255.954742 469.648560,257.731995 472.359833,259.693726   C482.504486,267.033844 492.827728,274.288818 501.000000,284.000000  "/>
</svg>